<?xml version="1.0" encoding="utf-8"?>
<!-- Generator: Adobe Illustrator 16.0.0, SVG Export Plug-In . SVG Version: 6.00 Build 0)  -->
<!DOCTYPE svg PUBLIC "-//W3C//DTD SVG 1.1//EN" "http://www.w3.org/Graphics/SVG/1.1/DTD/svg11.dtd">
<svg version="1.1" id="Layer_1" xmlns="http://www.w3.org/2000/svg" xmlns:xlink="http://www.w3.org/1999/xlink" x="0px" y="0px"
	 width="1024px" height="1024px" viewBox="0 0 1024 1024" enable-background="new 0 0 1024 1024" xml:space="preserve">
<g>
	<g>
		<g>
			<path fill="#2339BF" d="M449.141,219.795c13.71-3.18,27.75-4.86,41.81-5.02c0.13,7.1,0.14,14.2,0.05,21.3
				c0.18,3.87-3.44,6.23-5.81,8.74c-5.46,4.83-10.46,10.16-16.04,14.85c-7.07-6.07-13.96-12.53-19.83-19.74
				C448.411,233.275,449.151,226.496,449.141,219.795z"/>
			<path fill="#2339BF" d="M464.771,366.595c7.5-3.63,17.09,3.221,16.26,11.461c-0.06,7.39-8.39,13.22-15.29,10.479
				c-4.6-1.43-7.99-5.69-8.48-10.47C457.161,373.175,460.271,368.505,464.771,366.595z"/>
			<path fill="#2339BF" d="M421.751,418.556c5.44-1.74,11.12,2.21,12.52,7.47c2.26,6.609-1.54,15.56-8.94,16.6
				c-6.24,0.19-11.56-5.479-11.54-11.62C413.251,425.666,416.571,420.175,421.751,418.556z"/>
			<path fill="#2339BF" d="M458.101,505.835c4.89-6.939,10.53-13.33,16.02-19.779c7.54,6.869,14.54,14.319,22.19,21.069
				c1.63,1.61,4,3.17,3.71,5.79c0.19,38.37,0.08,76.75,0.03,115.12c-0.39,3.1,2.41,5.04,4.33,6.98
				c11.81,10.869,23.65,21.72,35.37,32.689c1.81,1.19,1.38,3.42,1.45,5.29c-0.13,8.38-0.05,16.771-0.22,25.16
				c-8.35-5.021-17.29-8.95-25.6-14.04c-19.24-10.37-37.83-21.94-57.14-32.17C458.031,603.246,458.321,554.536,458.101,505.835z"/>
			<g>
				<path fill="#2C85C2" d="M719.731,437.606c-5.8-8.07-12.1-15.771-18.7-23.19c-9.39-11.3-19.12-22.29-28.35-33.72
					c-3.52-4.28-8.03-8.7-8.06-14.641c-0.15-9.02,1.17-18.06,0.19-27.069c-0.14-1.79-0.34-3.561-0.61-5.33
					c-0.03-0.23-0.07-0.47-0.1-0.7c-2.08-14.37-7.2-27.17-14.15-38.48c1.46,6.9,1.14,14.18-0.98,20.92
					c-2.66,8.699-8.35,16.399-15.79,21.609c-4.59,3.221-9.87,5.46-15.37,6.561v8.62l4.28-1.71c-1.39,0.67-2.84,1.229-4.28,1.71
					c-0.05,6.17-0.09,12.34-0.12,18.51c-0.15,35.109,0.06,70.229-0.03,105.34c0,5.63-5.1,9.08-8.78,12.57
					c-5.38,4.56-10.34,9.609-15.83,14.05c-1.58,1.46-3.93,2.86-3.43,5.39c-0.01,38.17-0.17,76.351,0.15,114.521
					c22.21-0.99,44.47,0.26,66.69-0.3c8.5-0.36,17.38-1.66,24.51-6.66c7.31-4.65,11.94-12.94,12.51-21.54
					c0.38-11.37-4.75-21.86-6.44-32.92c-1.44-8.29,0.19-17.87,6.74-23.681c2.88-2.76,5.73-6.81,3.99-10.949
					c-2.1-3.9-6.05-6.301-9.58-8.761c5.04-2.63,10.81-5.819,12.39-11.739c0.82-2.551-1.11-4.761-2.61-6.58
					c-5.21-5.96-9.31-13.061-11.08-20.811c-0.75-3.45-0.22-8.25,3.64-9.57c7.05-2.3,14.59-2.76,21.58-5.279
					c4.47-1.67,8.93-4.521,10.75-9.141C724.881,448.885,723.061,442.476,719.731,437.606z M564.471,476.766
					c5.34,5.939,11.63,10.949,17.53,16.319c6.99-6.229,14.09-12.35,20.76-18.939c0.22-40.48,0.34-80.971,0-121.45l0.21-0.01v-8.86
					c-7.69-1.23-15.03-4.66-20.85-9.83c-7.12-6.24-11.98-15.01-13.42-24.38c-1.51-9.53,0.37-19.6,5.42-27.84
					c6.11-10.29,16.95-17.58,28.77-19.44c7.17-1.15,14.66-0.42,21.45,2.18c-31.82-28.26-70.67-40.7-70.67-40.7
					c-15.44-4.85-31.54-7.91-47.71-8.74c0.32,7.28-0.49,14.68,0.47,21.88c7.72,7.94,16.2,15.14,23.99,23.02
					c2.08,2.11,3.71,4.87,3.59,7.94c-0.02,9.62-0.31,19.24,0.02,28.86c3.71,1.6,7.4,3.44,10.42,6.18
					c7.58,7.01,10.76,18.84,6.41,28.43c-2.58,7.551-9.29,13.04-16.71,15.5c-11.13,3.71-24.29-1.33-30.37-11.29
					c-4.05-7.409-5.03-16.699-1.47-24.49c2.99-7.08,9.76-11.66,16.72-14.3c0.06-8.9,0.28-17.82,0.01-26.71
					c-1.17-2.77-3.93-4.6-5.93-6.79c-4.65-4.01-8.81-8.57-13.6-12.41c-6.35,5.39-12.17,11.36-18.27,17.02
					c-2.09,2.37-5.4,4.52-5.11,8.09c-0.14,25.1-0.04,50.221,0.03,75.33c4.99,2.311,9.98,4.97,13.57,9.26
					c6.6,7.16,7.49,18.15,4.01,26.96c-2.58,6.29-8.02,10.761-13.57,14.37c-0.02,23.04-0.21,46.11,0.11,69.141
					c8.21,8.779,17.4,16.64,26.02,25.029c3.41,3.44,8.76,6.341,8.46,11.921c0.14,38.77-0.1,77.55,0.23,116.319
					c11,10.26,21.96,20.57,33.3,30.47c8.79-7.42,17.37-15.09,26.01-22.689c-0.07-41.03-0.04-82.061-0.08-123.09
					c0.24-1.66-0.53-3.101-1.78-4.12c-5.71-5.271-11.03-10.95-16.86-16.09c-3.26-2.75-6.76-6.21-6.63-10.82
					c-0.03-8.45-0.01-16.91-0.09-25.36c-3.38-1.52-7.05-2.689-9.84-5.22c-7.09-6.51-11.16-16.899-8.32-26.38
					c3.01-12.77,16.69-21.66,29.61-19.45c10.53,1.57,19.96,9.74,22.34,20.21c1.15,5.57,0.8,11.62-1.8,16.75
					c-3.31,6.86-9.72,11.811-16.82,14.28C564.121,460.795,563.841,468.826,564.471,476.766z"/>
				<path fill="#2C85C2" d="M522.861,310.715c5.76-1.96,12.74,1.2,14.75,7.011c3.18,7.27-3.39,16.149-11.18,15.93
					c-7.21,0.1-13.89-7.39-11.73-14.561C515.641,315.056,519.031,312.016,522.861,310.715z"/>
				<path fill="#2C85C2" d="M552.751,416.385c8.24-3.329,17.76,4.971,15.7,13.551c-1.16,6.909-9.25,11.109-15.66,8.659
					c-6.12-1.75-10.68-9.6-7.34-15.449C546.821,420.005,549.521,417.526,552.751,416.385z"/>
			</g>
			<g>
				<path fill="#D52535" d="M392.841,242.346c12.9-7.87,27.02-13.42,41.29-18.23c0.38,5.29,0.46,10.58,0.37,15.88
					c0.02,3.05-0.34,6.56,1.95,8.98c7.6,7.74,15.83,14.85,23.32,22.71c1.6,1.29,1.22,3.46,1.3,5.26
					c-0.21,24.89,0.33,49.8-0.25,74.67c-4.96,2.7-9.93,5.729-13.24,10.45c-7.19,9.56-6.61,24.3,1.75,32.979
					c3.9,4.511,9.6,6.96,15.38,8.011c0.47,15.64,0.19,31.3,0.2,46.96c-0.2,8.02,0.27,16.069-0.25,24.079
					c-1.35,2.601-3.5,4.671-5.32,6.931c-3.04,3.42-5.4,7.38-8.58,10.689c-4.94-4.029-9.36-8.64-14.01-13
					c-1.58-1.64-3.46-3.12-4.49-5.18c-0.71-5.85-0.3-11.78-0.44-17.65c4.21-1.989,8.59-4.159,11.33-8.079
					c4.75-6.61,7.12-15.171,5.57-23.25c-1.43-9.33-8.05-18.19-17.35-20.801c-6.67-2.13-14.07-0.21-19.81,3.5
					c-10.54,7.28-14.17,22.24-9.35,33.9c2.37,6.88,7.77,12.59,14.73,14.9c0.12,6.63-0.08,13.27-0.03,19.909
					c-0.23,4.94,4.25,8.011,7.31,11.2c5.61,5.73,11.72,10.94,17.58,16.42c1.35,1.07,1.93,2.7,1.73,4.41
					c-0.08,44.84,0.14,89.68-0.26,134.51c-11.44-6.6-22.67-13.55-33.92-20.46c-4.2-2.689-8.71-5.22-11.78-9.25
					c-2.13-3.08-3.01-6.97-2.69-10.67c1.02-11.35,2.32-22.7,2.23-34.109c0.26-10.431-0.39-21.2-4.8-30.811
					c-0.43-55.09-0.06-110.229-0.23-165.34c8.74-7.98,17.85-15.57,26.22-23.94c2.22-2.029,2.53-5.18,2.56-8.01
					c0.03-21.64,0.04-43.28,0.18-64.91c-0.02-2.33-0.08-4.97-1.97-6.63c-4.19-4.17-8.64-8.08-12.71-12.37
					C401.971,251.335,396.921,247.315,392.841,242.346z"/>
				<path fill="#D52535" d="M374.181,255.275c3.36-2.46,6.6-5.09,10.17-7.25c7.76,7.92,15.67,15.69,23.57,23.47
					c1.49,1.51,3.39,3.1,3.11,5.47c0.26,20.69-0.04,41.4,0.13,62.091c0.01,1.26-0.03,2.689-1.13,3.529
					c-8.51,8.51-17.9,16.12-26.17,24.88c-0.84,1.011-1.99,2.07-1.76,3.521c0.04,50.01,0.15,100.01,0.05,150.01
					c-0.02,3.39-0.15,6.79-0.3,10.18c-4.05-3.56-8.17-7.05-12.14-10.689c-0.69-6.8-0.42-13.63-0.46-20.44
					c-0.07-45.029-0.04-90.069-0.07-135.1c1.77-2.13,3.55-4.271,5.65-6.09c3.29-2.771,6.21-5.94,9.05-9.17
					c4.18-4.25,8.92-7.931,12.91-12.36c1.76-1.63,1.26-4.18,1.4-6.31c-0.12-16.631,0.23-33.261-0.07-49.88
					c-1.15-3.65-4.8-5.81-7.22-8.61C385.481,266.625,379.121,261.596,374.181,255.275z"/>
			</g>
			<g>
				<path fill="#E9951C" d="M354.391,273.396c3.83-4,7.96-7.72,12.09-11.41c7.49,7.07,14.46,14.67,21.77,21.92
					c-0.39,13.86,0.42,27.75-0.37,41.6c-5.79,0.351-11.57,0.08-17.35-0.08c-0.21,3.431-1.42,7.11-0.29,10.431
					c3.91,5.17,8.91,9.43,13.64,13.83c-2.84,3.229-5.76,6.399-9.05,9.17c-5.75-5.101-10.95-10.78-16.59-16
					c-3.92-3.351-4.85-8.62-4.34-13.521c0.39-15.42-0.03-30.86,0.12-46.28C354.161,279.846,353.631,276.536,354.391,273.396z"/>
			</g>
			<path fill="#2F760E" d="M332.771,300.416c3.67-4.82,7.66-9.38,11.27-14.24c-0.06,12.63,0.04,25.26-0.02,37.891
				c0,2.77-2.44,4.64-4.11,6.56c-6.25,6.03-12.27,12.32-18.59,18.28c-2.63,2.46-5.79,5.27-5.52,9.229
				c-0.18,27.41-0.01,54.82-0.06,82.23c-0.31,4.33-0.28,8.85,2.08,12.67l0.1,0.23c-0.57,0.229-1.13,0.47-1.69,0.72
				c-17.19-31-20.11-69.391-8.52-102.83c1.4-4.16,2.49-8.811,6.22-11.57c5.86-6.33,13.11-11.47,18.08-18.55
				C333.601,314.345,332.571,307.255,332.771,300.416z"/>
			<path fill="#4C4F50" d="M349.431,335.016c1.71-1.71,3.17-3.641,4.47-5.681c-0.51,4.9,0.42,10.17,4.34,13.521
				c-6.61,6.75-13.48,13.239-20.11,19.97c-1.48,1.31-1.08,3.42-1.23,5.18c-0.07,21.021-0.17,42.03-0.08,63.051
				c-0.15,2.51,2.04,4.189,3.5,5.949c5.32,5.32,10.22,11.051,15.6,16.311c1.42,1.68,3.76,3.14,3.54,5.64
				c-0.39,17.54-0.11,35.101-0.37,52.64c-3.84-4.279-8.23-8.02-12.44-11.92c-0.82-13.189-0.37-26.43-0.39-39.649
				c-4.88-5.76-10.7-10.62-15.97-16.01c-4.31,2.79-8.18,6.199-12.47,9.02c-2.36-3.82-2.39-8.34-2.08-12.67
				c3.1-3.31,6.75-6.04,9.89-9.3c-0.05-23.05-0.04-46.09-0.08-69.13c-0.02-1.811,0.04-3.841,1.59-5.07
				C334.521,349.536,342.071,342.366,349.431,335.016z"/>
			<path fill="#4C4F50" d="M346.501,368.016c1.95-1.91,4.09-3.631,6.46-4.99c2.01,1.77,4.77,2.819,6.29,5.05
				c0.53,3.94,0.11,7.94,0.23,11.91c-0.09,18.02,0.25,36.04-0.22,54.05c-0.05,2.92,0.08,5.83,0.27,8.74
				c-4.26-4.38-8.63-8.66-12.71-13.2c-0.6-3.14-0.2-6.38-0.29-9.55C346.561,402.686,346.541,385.356,346.501,368.016z"/>
			<path fill="#4C4F50" d="M617.811,352.186v18.51h-0.12C617.721,364.526,617.761,358.356,617.811,352.186z"/>
			<g>
				<g>
					<path fill="#2C85C2" d="M603.897,268.533c7.104-1.143,14.562-0.101,21.027,3.08c8.227,3.955,14.744,11.3,17.704,19.934
						c2.461,7.038,2.584,14.864,0.351,21.977c-2.256,7.377-7.081,13.908-13.396,18.326c-6.436,4.515-14.444,6.735-22.284,6.162
						c-7.712-0.481-15.235-3.578-21.014-8.712c-6.035-5.297-10.157-12.729-11.377-20.675c-1.279-8.08,0.316-16.619,4.597-23.608
						C584.681,276.288,593.877,270.105,603.897,268.533z M605.515,271.457c-9.014,1.143-17.397,6.345-22.436,13.901
						c-3.786,5.547-5.708,12.335-5.417,19.044c0.283,7.155,3.089,14.19,7.843,19.556c5.665,6.569,14.103,10.685,22.789,10.958
						c6.357,0.283,12.791-1.429,18.158-4.845c7.256-4.518,12.556-12.077,14.262-20.46c1.185-5.547,0.833-11.42-1.016-16.785
						c-2.699-8.021-8.77-14.815-16.397-18.464C617.811,271.697,611.561,270.724,605.515,271.457z"/>
				</g>
				<path fill="#2C85C2" d="M606.166,273.657c2.025-0.231,4.063-0.319,6.101-0.264c0.67,0.078,1.589,0.492,1.358,1.318
					c-0.388,1.169-1.332,2.032-1.915,3.1c-3.698,6.403-7.461,12.768-11.163,19.171c-0.609,1.002-1.095,2.097-1.846,3.005
					c-0.697,0.273-0.964-0.531-1.271-0.97c-2.565-4.62-5.163-9.216-7.806-13.79c-0.521-1.032-1.798-2.403-0.671-3.47
					C593.561,277.222,599.756,274.393,606.166,273.657z"/>
				<path fill="#2C85C2" d="M616.522,274.507c0.39,0.003,0.781,0.029,1.172,0.075c7.12,2.048,13.46,6.794,17.231,13.198
					c0.745,1.39,1.784,2.724,1.918,4.349c-1.69,0.323-3.413,0.098-5.115,0.144c-6.846,0.062-13.689-0.14-20.536-0.082
					c-1.576-0.033-3.167,0.118-4.733-0.14c0.172-0.963,0.647-1.816,1.172-2.627c2.63-4.415,5.225-8.852,7.78-13.312
					C615.73,275.545,616.115,275.018,616.522,274.507z"/>
				<path fill="#2C85C2" d="M585.565,285.614c0.228-0.423,0.674-0.589,1.087-0.765c1.172,1.735,2.086,3.627,3.164,5.421
					c3.226,5.766,6.498,11.504,9.75,17.257c0.687,1.243,1.488,2.432,1.996,3.766c-1.394,0.495-2.891,0.225-4.333,0.276
					c-4.669,0.069-9.327-0.253-13.995-0.11c-0.886,0.023-2.201,0.114-2.435-1.016c-1.276-5.463-1.237-11.302,0.586-16.642
					C582.306,290.862,583.798,288.128,585.565,285.614z"/>
				<path fill="#2C85C2" d="M617.504,294.769c1.68-0.355,3.402-0.147,5.105-0.195c3.258-0.052,6.518,0.101,9.776,0.065
					c1.778,0.049,3.562-0.15,5.329,0.091c1.042,1.712,1.068,3.792,1.335,5.723c0.758,7.376-1.549,14.93-6.058,20.78
					c-0.414,0.055-0.856-0.036-0.993-0.482c-4.164-7.357-8.34-14.708-12.504-22.065
					C618.781,297.406,617.918,296.188,617.504,294.769z"/>
				<path fill="#2C85C2" d="M619.201,308.09c0.476-0.768,0.798-1.699,1.625-2.165c2.633,4.297,4.977,8.768,7.517,13.119
					c0.827,1.495,1.771,2.927,2.445,4.503c-0.277,0.374-0.544,0.759-0.873,1.094c-6.42,6.098-15.662,9.021-24.426,7.839
					c-0.156-1.081,0.596-1.937,1.087-2.813C610.799,322.483,614.988,315.279,619.201,308.09z"/>
				<path fill="#2C85C2" d="M582.056,313.993c1.667-0.362,3.383-0.189,5.075-0.222c3.678,0.078,7.367-0.186,11.033,0.183
					c4.84,0.14,9.698-0.183,14.529,0.13c-0.18,0.603-0.375,1.208-0.71,1.745c-2.688,4.492-5.319,9.018-7.94,13.549
					c-0.479,0.774-0.823,1.723-1.618,2.244c-1.172,0.218-2.256-0.46-3.34-0.798C591.371,327.981,584.892,321.731,582.056,313.993z"
					/>
			</g>
		</g>
		<g>
			<path fill="#2F760E" d="M174.885,737.466c4.06-3.764,9.711-5.376,15.145-5.514c5.894,0.096,12.159,2.146,15.896,6.926
				c5.868-7.025,16.547-8.39,24.756-5.144c6.127,2.543,10.652,8.283,12.201,14.681c1.142,3.6,0.682,7.405,0.745,11.122
				c0.09,16.049-0.031,32.104,0.032,48.154c-4.626-0.138-9.251,0.026-13.872-0.106c0.063-17.772-0.079-35.551,0.09-53.324
				c0.069-3.309-1.581-6.714-4.493-8.39c-2.86-1.49-6.608-1.385-9.199,0.635c-2.437,1.708-3.235,4.869-3.325,7.692
				c-0.026,17.82-0.021,35.641-0.026,53.461c-4.657,0.017-9.32-0.026-13.977,0.032c-0.047-18.148-0.058-36.303-0.042-54.445
				c-0.391-2.574-1.528-5.201-3.695-6.756c-3.125-2.32-7.798-2.04-10.7,0.508c-1.951,1.834-2.849,4.583-2.765,7.221
				c0.005,17.784-0.058,35.567,0.032,53.351c-4.588,0.238-9.193,0.032-13.782,0.026c-0.259-17.778-0.084-35.572-0.148-53.355
				C167.917,748.066,170.053,741.558,174.885,737.466z"/>
			<path fill="#2F760E" d="M320.917,732.667c4.536,0.017,9.072-0.053,13.607,0.037c-0.048,14.405-0.032,28.812-0.005,43.217
				c-0.016,2.421-0.026,4.842-0.228,7.259c4.404-5.6,8.998-11.039,13.401-16.632c2.649-3.584,5.805-6.756,8.406-10.382
				c5.075,0,10.161-0.011,15.236,0.063c-5.979,7.518-12.207,14.86-18.128,22.441c6.339,9.547,12.302,19.338,18.677,28.863
				c-4.996,0.275-10.002,0.048-15.002,0.19c-4.061-6.322-7.888-12.793-11.963-19.1c-2.733,3.595-5.472,7.185-8.284,10.721
				c-1.987,2.749-4.334,5.244-6.042,8.184c-3.204,0.316-6.417-0.037-9.626,0.053C320.932,782.608,320.938,757.634,320.917,732.667z"
				/>
			<g>
				<path fill="#2F760E" d="M257.427,765.115c4.16-5.498,10.292-9.643,17.176-10.705c7.924-1.479,16.975,0.513,22.313,6.894
					c0.365-1.744,0.841-3.457,1.184-5.202c4.023,0.021,8.046-0.053,12.069,0.048c0.011,17.145-0.016,34.282,0.016,51.421
					c-2.268,0.063-4.541,0.143-6.804-0.048c-1.21-2.235-2.558-4.397-3.854-6.587c-4.9,5.524-12.385,8.067-19.628,8.136
					c-8.067,0.302-16.319-3.229-21.331-9.626C250.681,789.903,250.365,775.196,257.427,765.115z M279.202,765.908
					c-3.087,0.613-6.185,1.781-8.448,4.044c-5.276,4.753-6.254,13.116-3.082,19.312c2.506,5.086,8.12,8.517,13.819,8.226
					c3.991,0.005,7.766-1.893,10.573-4.657c6.571-7.016,5.101-19.776-3.098-24.921C286.032,766.304,282.537,765.448,279.202,765.908
					z"/>
			</g>
			<g>
				<path fill="#2F760E" d="M390.882,755.245c7.956-2.314,17.022-1.639,24.059,2.95c3.161,1.84,5.714,4.493,7.998,7.316
					c-9.837,10.028-19.813,19.93-29.435,30.17c4.022,2.616,9.394,2.622,13.739,0.809c2.944-1.518,5.847-3.468,7.613-6.338
					c2.892,2.632,5.502,5.565,8.49,8.093c-4.06,5.102-9.854,8.871-16.272,10.171c-6.83,1.476-14.226,0.852-20.516-2.289
					c-7.269-3.943-12.735-11.196-14.242-19.358c-0.687-5.323-0.439-10.869,1.48-15.928
					C376.751,763.434,383.27,757.555,390.882,755.245z M395.941,765.675c-4.837,1.364-8.654,5.429-10.129,10.182
					c-1.312,3.891-0.507,8.104,0.729,11.91c3.431-3.378,6.777-6.835,10.208-10.208c3.547-3.362,6.704-7.143,10.489-10.234
					C404.035,765.009,399.679,764.613,395.941,765.675z"/>
			</g>
		</g>
		<g>
			<path fill="#2339BF" d="M424.816,733.586c4.975,0.084,9.949-0.01,14.918,0.18c2.099,7.75,5.106,15.23,7.375,22.938
				c2.701,8.955,5.826,17.778,8.659,26.701c0.439,1.052,0.312,2.506,1.343,3.225c2.902-10.081,6.475-19.956,9.584-29.974
				c2.521-7.649,5.17-15.257,7.576-22.943c4.969-0.19,9.943-0.005,14.918,0.005c-2.749,7.74-5.392,15.517-8.194,23.234
				c-5.657,16.942-11.705,33.748-17.281,50.718c-4.531-0.085-9.067,0.063-13.597-0.105
				C441.917,782.83,433.121,758.29,424.816,733.586z"/>
			<path fill="#2339BF" d="M611.807,733.391c4.478,0.037,8.961,0.053,13.438,0.011c0.011,7.549-0.021,15.103,0.037,22.652
				c5.858,0.079,11.72,0.026,17.577,0.111c0.006,3.557-0.042,7.115-0.047,10.678c-5.852,0.233-11.708,0.111-17.562,0.138
				c0.064,5.788,0,11.582,0.006,17.376c-0.053,3.114,0.465,6.492,2.616,8.893c1.772,1.766,4.161,3.107,6.719,3.107
				c3.452,0.08,6.904,0.08,10.361,0.063c0.101,3.754,0.165,7.513,0.084,11.266c-7.094-0.232-14.506,0.846-21.246-1.945
				c-4.509-2.035-8.315-5.81-10.002-10.499c-1.248-3.479-2.209-7.152-1.998-10.868c-0.026-5.805,0.016-11.609-0.032-17.414
				c-2.378-0.147-4.763-0.132-7.142-0.158c-0.629-3.51-0.486-7.089-0.592-10.631c2.59-0.096,5.181-0.096,7.777-0.074
				C611.775,748.532,611.813,740.961,611.807,733.391z"/>
			<g>
				<path fill="#2339BF" d="M502.029,756.99c6.941-3.495,15.246-4.044,22.641-1.734c5.784,1.792,10.796,5.636,14.306,10.536
					c-9.965,9.97-19.908,19.967-29.599,30.212c3.261,1.56,6.983,2.368,10.567,1.56c4.641-0.804,8.347-4.055,11.392-7.448
					c2.363,3.034,5.456,5.37,8.152,8.099c-8.797,11.281-26.146,14.325-38.406,7.12c-7.047-4.208-12.127-11.698-13.052-19.893
					c-0.831-6.127-0.032-12.703,3.298-18.017C493.767,762.99,497.7,759.527,502.029,756.99z M504.546,770.618
					c-4.082,4.79-4.483,11.826-2.152,17.498c4.752-5.148,9.912-9.906,14.796-14.929c2.046-1.902,3.807-4.092,5.974-5.867
					C517.301,763.529,508.732,765.014,504.546,770.618z"/>
			</g>
			<g>
				<path fill="#2339BF" d="M767.677,756.202c8.839-3.563,19.586-3.108,27.548,2.396c2.886,1.792,5.17,4.351,7.369,6.903
					c-6.317,6.434-12.634,12.873-18.92,19.343c-3.658,3.559-7.221,7.217-10.573,11.06c4.657,2.569,10.552,2.495,15.194-0.053
					c2.489-1.465,4.885-3.229,6.481-5.683c1.206,1.258,2.426,2.495,3.759,3.626c1.633,1.38,2.896,3.15,4.663,4.388
					c-3.278,3.838-7.274,7.285-12.106,8.944c-8.458,3.156-18.402,2.84-26.279-1.76c-8.653-5.044-13.961-15.183-13.332-25.163
					c0.264-5.351,1.999-10.663,5.112-15.04C759.546,761.399,763.29,758.173,767.677,756.202z M774.1,766.273
					c-4.298,1.85-7.676,5.751-8.818,10.298c-1.079,3.79-0.439,7.797,0.792,11.466c3.289-3.446,6.778-6.708,10.071-10.16
					c3.733-3.368,7.031-7.189,10.806-10.515C783.219,764.803,778.218,764.544,774.1,766.273z"/>
			</g>
			<path fill="#2339BF" d="M557.415,762.604c3.637-4.108,8.818-6.999,14.332-7.459c5.598-0.519,11.577,0.121,16.383,3.262
				c6.127,3.759,9.415,11.011,9.743,18.016c0.031,10.425-0.096,20.845-0.033,31.264c-4.536-0.063-9.071-0.084-13.607-0.138
				c0.053-9.663-0.016-19.321,0.021-28.985c0.306-3.933-1.586-8.062-4.932-10.202c-5.128-2.876-12.762-1.851-16.029,3.352
				c-1.226,1.855-1.908,4.081-1.924,6.307c0.047,9.886,0.047,19.776,0.037,29.662c-4.557-0.011-9.114-0.106-13.671-0.069
				c-0.084-17.148-0.096-34.304-0.032-51.452c1.993-0.011,3.986-0.021,5.979,0.09C554.814,758.433,556.59,760.246,557.415,762.604z"
				/>
			<path fill="#2339BF" d="M652.718,787.545c0.09-10.463,0.048-20.919,0.101-31.38c4.488-0.017,8.976-0.006,13.469,0.058
				c0.122,9.727,0.063,19.454-0.037,29.187c-0.084,3.256,0.788,6.766,3.272,9.028c4.34,4.155,11.963,4.119,16.229-0.142
				c2.379-2.269,3.125-5.688,3.395-8.845c0.126-7.242-0.271-14.475-0.16-21.712c0.095-2.531-0.238-5.09,0.223-7.596
				c4.577,0.105,9.156,0.047,13.734,0.074c0.005,17.117-0.005,34.229-0.011,51.341c-2.093,0.026-4.181,0.053-6.269,0.006
				c-1.454-1.982-2.802-4.044-3.912-6.243c-3.41,4.345-8.796,6.835-14.199,7.464c-5.747,0.809-11.89-0.158-16.732-3.483
				C655.917,801.512,652.882,794.385,652.718,787.545z"/>
			<path fill="#2339BF" d="M713.729,756.218c2.045,0,4.091-0.011,6.137-0.017c1.279,2.543,3.167,4.773,3.991,7.544
				c3.505-4.609,9.304-6.92,14.918-7.549c3.421-0.164,6.851-0.059,10.282-0.031c-0.042,3.668-0.016,7.337-0.026,11.011
				c-1.401,0.978-2.998-0.042-4.515-0.016c-4.351-0.09-9.198-0.116-12.734,2.813c-2.908,2.057-4.098,5.698-4.468,9.092
				c-0.069,9.495-0.01,18.995-0.032,28.5c-4.514,0.158-9.04,0.053-13.554,0.058C713.761,790.484,713.74,773.351,713.729,756.218z"/>
			<path fill="#2339BF" d="M811.433,765.041c2.284-4.625,7.073-7.4,11.985-8.416c4.879-0.776,9.826-0.312,14.744-0.428
				c5.149-0.021,10.298-0.011,15.452,0.042c-0.037,3.605-0.132,7.216,0.027,10.816c-7.808-0.048-15.616-0.026-23.424-0.032
				c-1.787,0.054-3.764-0.158-5.26,1.01c-3.208,2.078-2.881,7.861,0.819,9.22c1.877,0.925,4.023,0.407,6.032,0.513
				c5.488,0.116,11.25-0.57,16.398,1.792c3.098,1.242,5.577,3.785,6.926,6.814c1.157,3.446,1.543,7.264,0.512,10.789
				c-1.454,4.42-5.159,8.047-9.652,9.299c-5.08,1.855-10.521,0.899-15.786,1.2c-6.164-0.206-12.333,0.169-18.492-0.138
				c0.073-1.972-0.915-3.747-1.068-5.683c-0.116-1.358-0.09-2.723-0.132-4.075c8.151-0.232,16.314-0.006,24.476-0.08
				c2.39,0.021,5.075,0.032,7.053-1.533c1.644-1.575,1.665-4.303,0.512-6.169c-1.221-1.702-3.441-2.288-5.434-2.331
				c-3.711,0.005-7.423-0.063-11.133-0.031c-5.571,0.29-11.588-2.354-14.426-7.301C809.139,775.608,809.276,769.809,811.433,765.041
				z"/>
		</g>
	</g>
</g>
</svg>
